<?xml version="1.0" encoding="UTF-8" standalone="no"?> <svg width="64" height="64" viewBox="0 0 64 64" fill="none" xmlns="http://www.w3.org/2000/svg">
<path d="M62 33V21C62 20.7348 61.8946 20.4804 61.7071 20.2929C61.5196 20.1054 61.2652 20 61 20H60.858C60.637 19.1439 60.1385 18.3851 59.4404 17.8423C58.7424 17.2995 57.8842 17.0033 57 17C56.7348 17 56.4804 17.1054 56.2929 17.2929C56.1054 17.4804 56 17.7348 56 18C56 18.2652 56.1054 18.5196 56.2929 18.7071C56.4804 18.8946 56.7348 19 57 19C57.3495 19.0011 57.6926 19.094 57.9948 19.2695C58.2971 19.445 58.5479 19.697 58.722 20H41C40.7348 20 40.4804 20.1054 40.2929 20.2929C40.1054 20.4804 40 20.7348 40 21C40 21.2652 40.1054 21.5196 40.2929 21.7071C40.4804 21.8946 40.7348 22 41 22H60V32.586L54.586 38H33.873L31.691 22H37C37.2652 22 37.5196 21.8946 37.7071 21.7071C37.8946 21.5196 38 21.2652 38 21C38 20.7348 37.8946 20.4804 37.7071 20.2929C37.5196 20.1054 37.2652 20 37 20H33.2C33.3277 19.6281 33.5283 19.2854 33.7901 18.9921C34.0519 18.6987 34.3696 18.4606 34.7247 18.2917C35.0797 18.1227 35.4649 18.0263 35.8577 18.0082C36.2505 17.99 36.6429 18.0505 37.012 18.186C37.2321 18.2659 37.4733 18.2661 37.6935 18.1864C37.9137 18.1067 38.099 17.9523 38.217 17.75C38.3745 17.4594 38.6275 17.2322 38.9333 17.1068C39.2391 16.9814 39.5789 16.9656 39.895 17.062C40.1439 17.1298 40.4095 17.0988 40.6361 16.9755C40.8627 16.8521 41.0329 16.6459 41.111 16.4C41.2145 16.0609 41.4074 15.7559 41.6695 15.5171C41.9315 15.2783 42.2531 15.1145 42.6003 15.0429C42.9475 14.9713 43.3076 14.9945 43.6428 15.1101C43.978 15.2258 44.2758 15.4295 44.505 15.7C44.6106 15.8216 44.7439 15.9159 44.8938 15.9749C45.0436 16.0339 45.2055 16.0558 45.3656 16.0389C45.5258 16.0219 45.6794 15.9665 45.8135 15.8773C45.9477 15.7882 46.0583 15.668 46.136 15.527C46.254 15.3121 46.4469 15.148 46.678 15.066C46.822 15.0155 46.9526 14.9327 47.0596 14.8239C47.1667 14.7152 47.2475 14.5834 47.2957 14.4386C47.344 14.2938 47.3585 14.1399 47.3381 13.9886C47.3177 13.8374 47.2629 13.6928 47.178 13.566C47.0622 13.4 47.0001 13.2024 47 13C46.997 12.8687 47.0199 12.738 47.0673 12.6156C47.1148 12.4931 47.1859 12.3812 47.2766 12.2862C47.3674 12.1912 47.4759 12.115 47.5961 12.0619C47.7162 12.0089 47.8457 11.98 47.977 11.977C48.2422 11.9709 48.499 12.0704 48.6908 12.2536C48.7858 12.3444 48.862 12.4529 48.9151 12.5731C48.9681 12.6932 48.997 12.8227 49 12.954L48.987 13.067C48.9744 13.2263 49.0001 13.3862 49.062 13.5335C49.1238 13.6808 49.2201 13.8111 49.3427 13.9135C49.4653 14.0159 49.6107 14.0875 49.7666 14.1222C49.9225 14.1569 50.0845 14.1538 50.239 14.113C50.9451 13.9103 51.7017 13.9818 52.3574 14.3131C53.0131 14.6445 53.5194 15.2113 53.775 15.9C53.8729 16.1466 54.0647 16.3443 54.3083 16.4495C54.5519 16.5547 54.8273 16.5589 55.074 16.461C55.3207 16.3631 55.5183 16.1713 55.6235 15.9277C55.7287 15.6841 55.7329 15.4087 55.635 15.162C55.2644 14.1993 54.6018 13.3768 53.7401 12.8097C52.8783 12.2427 51.8608 11.9595 50.83 12C50.5792 11.2834 50.066 10.6885 49.394 10.3354C48.7219 9.9822 47.9409 9.89697 47.2085 10.0969C46.476 10.2968 45.8466 10.767 45.4472 11.4126C45.0478 12.0583 44.908 12.8314 45.056 13.576C44.603 13.3002 44.0992 13.1181 43.5746 13.0404C43.0499 12.9628 42.515 12.9912 42.0015 13.124C41.488 13.2568 41.0064 13.4912 40.5851 13.8134C40.1639 14.1357 39.8115 14.5392 39.549 15C39.0657 14.9938 38.5863 15.0884 38.1416 15.2778C37.6968 15.4672 37.2965 15.7472 36.966 16.1C36.6482 16.0342 36.3245 16.0007 36 16C34.9775 16.0038 33.9807 16.3211 33.144 16.909C32.3074 17.4969 31.6711 18.3273 31.321 19.288L30.991 16.865C30.9583 16.6254 30.84 16.4057 30.6577 16.2466C30.4755 16.0876 30.2419 16 30 16H25C24.7348 16 24.4804 16.1054 24.2929 16.2929C24.1054 16.4804 24 16.7348 24 17C24 17.2652 24.1054 17.5196 24.2929 17.7071C24.4804 17.8946 24.7348 18 25 18H29.127L31.854 38H28.9L27 20.89C26.9728 20.6443 26.8556 20.4173 26.6709 20.253C26.4862 20.0886 26.2472 19.9985 26 20H19V18H21C21.2652 18 21.5196 17.8946 21.7071 17.7071C21.8946 17.5196 22 17.2652 22 17C22 16.7348 21.8946 16.4804 21.7071 16.2929C21.5196 16.1054 21.2652 16 21 16H18C17.7348 16 17.4804 16.1054 17.2929 16.2929C17.1054 16.4804 17 16.7348 17 17V21C17 21.2652 17.1054 21.5196 17.2929 21.7071C17.4804 21.8946 17.7348 22 18 22H25.105L26.883 38H23C22.7348 38 22.4804 38.1054 22.2929 38.2929C22.1054 38.4804 22 38.7348 22 39V44H20.315C19.7494 42.8035 18.8556 41.7924 17.7376 41.0842C16.6196 40.3761 15.3234 40.0001 14 40.0001C12.6766 40.0001 11.3804 40.3761 10.2624 41.0842C9.14441 41.7924 8.25057 42.8035 7.685 44H4V38H13C14.3256 37.9984 15.5964 37.4711 16.5338 36.5338C17.4711 35.5964 17.9984 34.3256 18 33V29C18 28.7348 17.8946 28.4804 17.7071 28.2929C17.5196 28.1054 17.2652 28 17 28C16.7348 28 16.4804 28.1054 16.2929 28.2929C16.1054 28.4804 16 28.7348 16 29V33C16 33.7956 15.6839 34.5587 15.1213 35.1213C14.5587 35.6839 13.7956 36 13 36H4V35C4.00322 32.7875 4.82035 30.6534 6.29568 29.0046C7.77101 27.3557 9.80142 26.3072 12 26.059V33C12 33.2652 12.1054 33.5196 12.2929 33.7071C12.4804 33.8946 12.7348 34 13 34C13.2652 34 13.5196 33.8946 13.7071 33.7071C13.8946 33.5196 14 33.2652 14 33V26H22V35C22 35.2652 22.1054 35.5196 22.2929 35.7071C22.4804 35.8946 22.7348 36 23 36C23.2652 36 23.5196 35.8946 23.7071 35.7071C23.8946 35.5196 24 35.2652 24 35V25C24 24.7348 23.8946 24.4804 23.7071 24.2929C23.5196 24.1054 23.2652 24 23 24H13C10.0837 24.0034 7.28778 25.1635 5.22563 27.2256C3.16347 29.2878 2.00344 32.0837 2 35V45C2 45.2652 2.10536 45.5196 2.29289 45.7071C2.48043 45.8946 2.73478 46 3 46H7.08C6.92797 46.9969 6.99315 48.015 7.27107 48.9844C7.54899 49.9538 8.0331 50.8517 8.69025 51.6167C9.3474 52.3817 10.1621 52.9956 11.0785 53.4165C11.995 53.8374 12.9915 54.0553 14 54.0553C15.0085 54.0553 16.005 53.8374 16.9215 53.4165C17.8379 52.9956 18.6526 52.3817 19.3098 51.6167C19.9669 50.8517 20.451 49.9538 20.7289 48.9844C21.0069 48.015 21.072 46.9969 20.92 46H22V49C22 49.2652 22.1054 49.5196 22.2929 49.7071C22.4804 49.8946 22.7348 50 23 50H29C29.2652 50 29.5196 49.8946 29.7071 49.7071C29.8946 49.5196 30 49.2652 30 49V46H31.08C30.8263 47.7491 31.243 49.5295 32.2466 50.9843C33.2503 52.4391 34.7667 53.4608 36.492 53.8447C38.2172 54.2285 40.0238 53.946 41.5496 53.054C43.0753 52.1619 44.2076 50.7261 44.7193 49.0344C45.2311 47.3427 45.0845 45.52 44.309 43.9318C43.5335 42.3436 42.1864 41.1072 40.5377 40.4704C38.889 39.8336 37.0605 39.8435 35.4187 40.498C33.777 41.1526 32.4433 42.4035 31.685 44H30V40H60V43.413C59.0902 41.8734 57.6396 40.7279 55.9309 40.1999C54.2223 39.672 52.3783 39.7994 50.7586 40.5574C49.1389 41.3154 47.8596 42.6496 47.1702 44.2997C46.4809 45.9498 46.431 47.7975 47.0302 49.4825C47.6294 51.1674 48.8348 52.5687 50.4112 53.4131C51.9876 54.2574 53.822 54.4843 55.5567 54.0494C57.2913 53.6145 58.8017 52.549 59.7933 51.0608C60.7849 49.5726 61.1866 47.7683 60.92 46H61C61.2652 46 61.5196 45.8946 61.7071 45.7071C61.8946 45.5196 62 45.2652 62 45V39C62 38.7348 61.8946 38.4804 61.7071 38.2929C61.5196 38.1054 61.2652 38 61 38H57.414L61.707 33.707C61.8946 33.5195 61.9999 33.2652 62 33V33ZM14 52C13.0111 52 12.0444 51.7068 11.2221 51.1573C10.3999 50.6079 9.75904 49.827 9.3806 48.9134C9.00216 47.9998 8.90315 46.9945 9.09607 46.0245C9.289 45.0546 9.7652 44.1637 10.4645 43.4645C11.1637 42.7652 12.0546 42.289 13.0245 42.0961C13.9945 41.9031 14.9998 42.0022 15.9134 42.3806C16.827 42.759 17.6079 43.3999 18.1573 44.2221C18.7068 45.0444 19 46.0111 19 47C18.9984 48.3256 18.4711 49.5964 17.5338 50.5338C16.5964 51.4711 15.3256 51.9984 14 52V52ZM38 42C38.9889 42 39.9556 42.2932 40.7779 42.8427C41.6001 43.3921 42.241 44.173 42.6194 45.0866C42.9978 46.0002 43.0969 47.0055 42.9039 47.9755C42.711 48.9454 42.2348 49.8363 41.5355 50.5355C40.8363 51.2348 39.9454 51.711 38.9755 51.9039C38.0055 52.0969 37.0002 51.9978 36.0866 51.6194C35.173 51.241 34.3921 50.6001 33.8427 49.7779C33.2932 48.9556 33 47.9889 33 47C33.0016 45.6744 33.5289 44.4036 34.4662 43.4662C35.4036 42.5289 36.6744 42.0016 38 42V42ZM28 48H24V46H28V48ZM28 44H24V40H28V44ZM54 52C53.0111 52 52.0444 51.7068 51.2221 51.1573C50.3999 50.6079 49.759 49.827 49.3806 48.9134C49.0022 47.9998 48.9031 46.9945 49.0961 46.0245C49.289 45.0546 49.7652 44.1637 50.4645 43.4645C51.1637 42.7652 52.0546 42.289 53.0245 42.0961C53.9945 41.9031 54.9998 42.0022 55.9134 42.3806C56.827 42.759 57.6079 43.3999 58.1573 44.2221C58.7068 45.0444 59 46.0111 59 47C58.9984 48.3256 58.4711 49.5964 57.5338 50.5338C56.5964 51.4711 55.3256 51.9984 54 52V52Z" fill="black"/>
<path d="M39.656 28.379C39.6801 28.5093 39.7299 28.6335 39.8025 28.7444C39.875 28.8553 39.9689 28.9507 40.0786 29.025C40.1883 29.0993 40.3118 29.1511 40.4417 29.1773C40.5716 29.2035 40.7054 29.2036 40.8353 29.1776C40.9653 29.1516 41.0888 29.1001 41.1986 29.0259C41.3085 28.9518 41.4025 28.8566 41.4753 28.7458C41.548 28.635 41.598 28.5109 41.6223 28.3806C41.6467 28.2504 41.6449 28.1166 41.617 27.987L40.98 24.8C40.9339 24.5741 40.8112 24.3711 40.6326 24.2253C40.454 24.0796 40.2306 24 40 24H35C34.8517 24 34.7053 24.0329 34.5713 24.0965C34.4373 24.16 34.3191 24.2526 34.2253 24.3675C34.1315 24.4823 34.0644 24.6166 34.0289 24.7606C33.9934 24.9046 33.9904 25.0547 34.02 25.2L36.02 35.2C36.0661 35.4259 36.1889 35.6289 36.3674 35.7747C36.546 35.9204 36.7695 36 37 36H42C42.1483 36 42.2948 35.9671 42.4288 35.9035C42.5628 35.84 42.6809 35.7474 42.7748 35.6325C42.8686 35.5177 42.9356 35.3834 42.9712 35.2394C43.0067 35.0954 43.0097 34.9453 42.98 34.8L42.402 31.91C42.3779 31.7797 42.3281 31.6555 42.2556 31.5446C42.183 31.4337 42.0892 31.3383 41.9794 31.264C41.8697 31.1897 41.7463 31.1379 41.6164 31.1117C41.4865 31.0855 41.3527 31.0854 41.2227 31.1114C41.0928 31.1374 40.9693 31.1889 40.8594 31.2631C40.7495 31.3372 40.6555 31.4324 40.5828 31.5432C40.5101 31.654 40.4601 31.7781 40.4357 31.9084C40.4114 32.0386 40.4132 32.1724 40.441 32.302L40.78 34H37.819L36.219 26H39.18L39.656 28.379Z" fill="black"/>
<path d="M46 36H51C51.1483 36 51.2948 35.9671 51.4288 35.9035C51.5628 35.84 51.6809 35.7474 51.7748 35.6325C51.8686 35.5177 51.9356 35.3834 51.9712 35.2394C52.0067 35.0954 52.0097 34.9453 51.98 34.8L49.98 24.8C49.9339 24.5741 49.8112 24.3711 49.6326 24.2253C49.454 24.0796 49.2306 24 49 24H44C43.8517 24 43.7053 24.0329 43.5713 24.0965C43.4373 24.16 43.3191 24.2526 43.2253 24.3675C43.1315 24.4823 43.0644 24.6166 43.0289 24.7606C42.9934 24.9046 42.9904 25.0547 43.02 25.2L45.02 35.2C45.0661 35.4259 45.1889 35.6289 45.3674 35.7747C45.546 35.9204 45.7695 36 46 36ZM48.181 26L49.781 34H46.819L45.219 26H48.181Z" fill="black"/>
<path d="M54 33H57C57.2652 33 57.5196 32.8946 57.7071 32.7071C57.8947 32.5196 58 32.2652 58 32V25C58 24.7348 57.8947 24.4804 57.7071 24.2929C57.5196 24.1054 57.2652 24 57 24H53C52.8567 24 52.715 24.0308 52.5846 24.0903C52.4542 24.1498 52.3382 24.2367 52.2443 24.345C52.1504 24.4533 52.0809 24.5805 52.0405 24.718C52 24.8555 51.9897 25.0001 52.01 25.142L53.01 32.142C53.0442 32.3802 53.1631 32.5981 53.3449 32.7557C53.5268 32.9133 53.7594 33 54 33V33ZM56 26V31H54.867L54.153 26H56Z" fill="black"/>
<path d="M38 50C38.5933 50 39.1734 49.8241 39.6667 49.4944C40.1601 49.1648 40.5446 48.6962 40.7716 48.148C40.9987 47.5999 41.0581 46.9967 40.9424 46.4147C40.8266 45.8328 40.5409 45.2982 40.1213 44.8787C39.7018 44.4591 39.1672 44.1734 38.5853 44.0576C38.0033 43.9419 37.4001 44.0013 36.852 44.2284C36.3038 44.4554 35.8352 44.8399 35.5056 45.3333C35.1759 45.8266 35 46.4067 35 47C35 47.7957 35.3161 48.5587 35.8787 49.1213C36.4413 49.6839 37.2044 50 38 50V50ZM38 46C38.1978 46 38.3911 46.0586 38.5556 46.1685C38.72 46.2784 38.8482 46.4346 38.9239 46.6173C38.9996 46.8 39.0194 47.0011 38.9808 47.1951C38.9422 47.3891 38.847 47.5673 38.7071 47.7071C38.5673 47.847 38.3891 47.9422 38.1951 47.9808C38.0011 48.0194 37.8 47.9996 37.6173 47.9239C37.4346 47.8482 37.2784 47.72 37.1685 47.5556C37.0586 47.3911 37 47.1978 37 47C37 46.7348 37.1054 46.4804 37.2929 46.2929C37.4804 46.1054 37.7348 46 38 46Z" fill="black"/>
<path d="M54 44C53.4067 44 52.8266 44.1759 52.3333 44.5056C51.8399 44.8352 51.4554 45.3038 51.2284 45.852C51.0013 46.4001 50.9419 47.0033 51.0576 47.5853C51.1734 48.1672 51.4591 48.7018 51.8787 49.1213C52.2982 49.5409 52.8328 49.8266 53.4147 49.9424C53.9967 50.0581 54.5999 49.9987 55.148 49.7716C55.6962 49.5446 56.1648 49.1601 56.4944 48.6667C56.8241 48.1734 57 47.5933 57 47C57 46.2044 56.6839 45.4413 56.1213 44.8787C55.5587 44.3161 54.7957 44 54 44ZM54 48C53.8022 48 53.6089 47.9414 53.4444 47.8315C53.28 47.7216 53.1518 47.5654 53.0761 47.3827C53.0004 47.2 52.9806 46.9989 53.0192 46.8049C53.0578 46.6109 53.153 46.4327 53.2929 46.2929C53.4327 46.153 53.6109 46.0578 53.8049 46.0192C53.9989 45.9806 54.2 46.0004 54.3827 46.0761C54.5654 46.1518 54.7216 46.28 54.8315 46.4444C54.9414 46.6089 55 46.8022 55 47C55 47.2652 54.8946 47.5196 54.7071 47.7071C54.5196 47.8946 54.2652 48 54 48Z" fill="black"/>
<path d="M14 44C13.4067 44 12.8266 44.1759 12.3333 44.5056C11.8399 44.8352 11.4554 45.3038 11.2284 45.852C11.0013 46.4001 10.9419 47.0033 11.0576 47.5853C11.1734 48.1672 11.4591 48.7018 11.8787 49.1213C12.2982 49.5409 12.8328 49.8266 13.4147 49.9424C13.9967 50.0581 14.5999 49.9987 15.1481 49.7716C15.6962 49.5446 16.1648 49.1601 16.4944 48.6667C16.8241 48.1734 17 47.5933 17 47C17 46.2044 16.6839 45.4413 16.1213 44.8787C15.5587 44.3161 14.7957 44 14 44V44ZM14 48C13.8022 48 13.6089 47.9414 13.4444 47.8315C13.28 47.7216 13.1518 47.5654 13.0761 47.3827C13.0004 47.2 12.9806 46.9989 13.0192 46.8049C13.0578 46.6109 13.153 46.4327 13.2929 46.2929C13.4327 46.153 13.6109 46.0578 13.8049 46.0192C13.9989 45.9806 14.2 46.0004 14.3827 46.0761C14.5654 46.1518 14.7216 46.28 14.8315 46.4444C14.9414 46.6089 15 46.8022 15 47C15 47.2652 14.8946 47.5196 14.7071 47.7071C14.5196 47.8946 14.2652 48 14 48Z" fill="black"/>
</svg>
