<svg xmlns="http://www.w3.org/2000/svg" viewBox="0 0 64 64"><g id="Layer_55" data-name="Layer 55"><path d="M60,15.63a1,1,0,0,0-1,1v5.78H56V15.13a1,1,0,0,0-1-1H52a1,1,0,0,0-1,1v7.28H46.76c0-.12.07-4.41-.07-4.36,0-.18-4-8.28-4.11-8.43h.92a1,1,0,0,0,0-2h-23a1,1,0,0,0,0,2h.92L17.34,18a1.47,1.47,0,0,0-.1.4c0,.06,0,4,0,4.06H13V9.35a1,1,0,0,0-1.66-.75l-8,7a1,1,0,0,0-.34.75V44.41a1,1,0,0,0,1,1s8,0,8,0h4.34l-.93,1.36a5,5,0,1,0,1.65,1.13l1.7-2.49H45.23l1.7,2.49a5,5,0,1,0,1.65-1.13l-.93-1.36H55a1,1,0,0,0,1-1v-20h3v5.88a1,1,0,0,0,2,0V16.63A1,1,0,0,0,60,15.63ZM16.49,51.38a3,3,0,1,1-2.24-2.89l-1.59,2.33a1,1,0,1,0,1.65,1.12l1.59-2.33A3,3,0,0,1,16.49,51.38Zm34-3a3,3,0,1,1-2.41,1.23l1.58,2.33a1,1,0,0,0,1.39.27,1,1,0,0,0,.27-1.39l-1.59-2.33A3.17,3.17,0,0,1,50.51,48.38Zm-31.27-25v-4H44.76V31.23a3.92,3.92,0,0,1-3.91,3.92H23.15a3.92,3.92,0,0,1-3.91-3.92ZM23.65,9.62h16.7l3.81,7.77H19.84ZM13,39.13V24.41h4.24v6.82a5.92,5.92,0,0,0,5.91,5.92h17.7a5.92,5.92,0,0,0,5.91-5.92V24.41H51V39.13Z"/></g></svg>